<svg xmlns="http://www.w3.org/2000/svg" width="600" height="390" viewBox="0 0 600 390">
<style>text { font-family: -apple-system,BlinkMacSystemFont,"Segoe UI",Helvetica,Arial,sans-serif; }</style>
<rect width="100%" height="100%" fill="#ffffff" rx="8" stroke="none"/>
<text x="40" y="45" font-size="18" font-weight="400" fill="#0969da">Most Used Languages (11 in Total)</text>
<circle cx="50" cy="75" r="6" fill="#f34b7d"/>
<text x="65" y="80" font-size="14" fill="#24292f">C++</text>
<text x="220" y="80" font-size="14" fill="#57606a" text-anchor="end">34.0%</text>
<circle cx="330" cy="75" r="6" fill="#00ADD8"/>
<text x="345" y="80" font-size="14" fill="#24292f">Go</text>
<text x="500" y="80" font-size="14" fill="#57606a" text-anchor="end">24.7%</text>
<circle cx="50" cy="105" r="6" fill="#b07219"/>
<text x="65" y="110" font-size="14" fill="#24292f">Java</text>
<text x="220" y="110" font-size="14" fill="#57606a" text-anchor="end">12.7%</text>
<circle cx="330" cy="105" r="6" fill="#3572A5"/>
<text x="345" y="110" font-size="14" fill="#24292f">Python</text>
<text x="500" y="110" font-size="14" fill="#57606a" text-anchor="end">12.4%</text>
<circle cx="50" cy="135" r="6" fill="#555555"/>
<text x="65" y="140" font-size="14" fill="#24292f">C</text>
<text x="220" y="140" font-size="14" fill="#57606a" text-anchor="end">5.7%</text>
<circle cx="330" cy="135" r="6" fill="#89e051"/>
<text x="345" y="140" font-size="14" fill="#24292f">Shell</text>
<text x="500" y="140" font-size="14" fill="#57606a" text-anchor="end">4.9%</text>
<circle cx="50" cy="165" r="6" fill="#DA3434"/>
<text x="65" y="170" font-size="14" fill="#24292f">CMake</text>
<text x="220" y="170" font-size="14" fill="#57606a" text-anchor="end">3.0%</text>
<circle cx="330" cy="165" r="6" fill="#0298c3"/>
<text x="345" y="170" font-size="14" fill="#24292f">Perl</text>
<text x="500" y="170" font-size="14" fill="#57606a" text-anchor="end">2.5%</text>
<text x="40" y="215" font-size="18" font-weight="400" fill="#0969da">Overall Issues and Pull Requests Status</text>
<text x="155" y="250" font-size="15" fill="#0969da" text-anchor="middle">Issues</text>
<rect x="40.0" y="265" width="153.3" height="10" rx="4" fill="#1a7f37"/><rect x="193.3" y="265" width="76.7" height="10" rx="4" fill="#8250df"/>
<circle cx="45" cy="295" r="4" fill="#1a7f37"/><text x="55" y="300" font-size="14" fill="#57606a">6 open</text>
<circle cx="150" cy="295" r="4" fill="#8250df"/><text x="160" y="300" font-size="14" fill="#57606a">3 closed</text>
<circle cx="45" cy="320" r="4" fill="none" stroke="#8c959f" stroke-width="1.5"/><text x="55" y="325" font-size="14" fill="#57606a">0 drafts</text>
<circle cx="150" cy="320" r="4" fill="none" stroke="#8c959f" stroke-width="1.5"/><text x="160" y="325" font-size="14" fill="#57606a">0 skipped</text>
<text x="435" y="250" font-size="15" fill="#0969da" text-anchor="middle">Pull requests</text>
<rect x="320.0" y="265" width="230.0" height="10" rx="4" fill="#8250df"/>
<circle cx="325" cy="295" r="4" fill="#1a7f37"/><text x="335" y="300" font-size="14" fill="#57606a">0 open</text>
<circle cx="430" cy="295" r="4" fill="#8250df"/><text x="440" y="300" font-size="14" fill="#57606a">17 merged</text>
<circle cx="325" cy="320" r="4" fill="none" stroke="#8c959f" stroke-width="1.5"/><text x="335" y="325" font-size="14" fill="#57606a">0 drafts</text>
<circle cx="430" cy="320" r="4" fill="#d1242f"/><text x="440" y="325" font-size="14" fill="#57606a">0 closed</text>
</svg>